<svg width="22" height="22" viewBox="0 0 22 22" fill="none" xmlns="http://www.w3.org/2000/svg">
<path d="M11.0001 0.166687C5.02008 0.166687 0.166748 5.02002 0.166748 11C0.166748 16.98 5.02008 21.8334 11.0001 21.8334C16.9801 21.8334 21.8334 16.98 21.8334 11C21.8334 5.02002 16.9801 0.166687 11.0001 0.166687ZM12.0834 18.5834H9.91675V16.4167H12.0834V18.5834ZM14.3259 10.1875L13.3509 11.1842C12.5709 11.975 12.0834 12.625 12.0834 14.25H9.91675V13.7084C9.91675 12.5167 10.4042 11.4334 11.1842 10.6425L12.5276 9.27752C12.9284 8.88752 13.1667 8.34585 13.1667 7.75002C13.1667 6.55835 12.1917 5.58335 11.0001 5.58335C9.80842 5.58335 8.83342 6.55835 8.83342 7.75002H6.66675C6.66675 5.35585 8.60592 3.41669 11.0001 3.41669C13.3942 3.41669 15.3334 5.35585 15.3334 7.75002C15.3334 8.70335 14.9434 9.57002 14.3259 10.1875Z" fill="white"/>
</svg>
