<svg width="80" height="80" viewBox="0 0 80 80" fill="none" xmlns="http://www.w3.org/2000/svg">
<g clip-path="url(#clip0)">
<path d="M79.674 34.1186L66.2842 16.7248C65.7886 16.0815 64.8846 15.9228 64.1992 16.3586L55.5542 21.8567H44.2791C44.1333 21.8567 43.988 21.8878 43.8476 21.9287L35.1056 24.4452L26.0345 21.9641L17.2204 16.3586C16.5466 15.9301 15.6591 16.0754 15.158 16.6967L0.347861 35.0415C-0.184365 35.7007 -0.0964748 36.6632 0.545615 37.2156L8.30807 43.8959L15.2722 53.2806C13.2354 55.4504 13.2751 58.8727 15.3943 60.9924C16.3336 61.9311 17.528 62.4615 18.7567 62.5848C18.714 62.8631 18.692 63.1457 18.692 63.4326C18.692 64.9133 19.2688 66.3055 20.3155 67.3523C21.3629 68.3996 22.7551 68.9764 24.2358 68.9764C24.2559 68.9764 24.2755 68.9752 24.295 68.9746C24.2944 69.0124 24.2926 69.0497 24.2926 69.0875C24.2926 70.5682 24.8694 71.9604 25.9161 73.0078C26.9635 74.0546 28.3557 74.6313 29.8364 74.6313C30.1288 74.6313 30.4181 74.6075 30.7019 74.5636C30.8221 75.7965 31.3537 76.9964 32.2961 77.9388C33.3764 79.0198 34.7961 79.5599 36.2158 79.5599C37.6355 79.5599 39.0551 79.0198 40.1361 77.9388L40.9839 77.0911L41.3397 77.3779C42.4115 78.4161 43.8031 78.9349 45.1947 78.9349C46.6143 78.9349 48.034 78.3948 49.1143 77.3138C50.2173 76.2109 50.7574 74.7552 50.7348 73.3069C52.1826 73.3288 53.6389 72.7893 54.7418 71.687C55.8435 70.5847 56.3836 69.1302 56.3623 67.6825C57.8705 67.7063 59.3011 67.1271 60.3686 66.0596C61.4715 64.9566 62.0117 63.501 61.9891 62.0526C63.4381 62.0746 64.8932 61.535 65.9961 60.4321C67.8784 58.5498 68.1207 55.6402 66.7248 53.4924L71.8097 42.843L79.4543 36.2646C80.086 35.7208 80.1825 34.7784 79.674 34.1186ZM16.7187 19.7577L23.0566 23.7878L9.26937 40.5847L3.74447 35.8294L16.7187 19.7577ZM17.6129 55.3705L19.5257 53.4576C19.5837 53.3996 19.6447 53.3447 19.707 53.2934C20.0811 52.9883 20.534 52.8064 21.0138 52.763C21.0272 52.7618 21.0412 52.7618 21.0547 52.7612C21.123 52.7557 21.1914 52.7521 21.2603 52.7527C21.9159 52.7618 22.525 53.0298 22.9767 53.5065C23.8629 54.4433 23.8153 55.9741 22.8704 56.9189L21.0156 58.7738C20.0775 59.7119 18.551 59.7119 17.6129 58.7738C16.6748 57.8351 16.6748 56.3086 17.6129 55.3705ZM22.5341 65.1337C22.0794 64.6796 21.8292 64.0753 21.8292 63.4326C21.8292 62.7899 22.0794 62.1857 22.5341 61.7309L26.2433 58.0218C26.9537 57.3114 28.0706 57.1167 28.9788 57.5494C29.9151 57.9956 30.4419 59.0118 30.3045 60.0342C30.2313 60.5798 29.9774 61.0937 29.588 61.4837L25.9375 65.1337C25.4828 65.5884 24.8785 65.8386 24.2358 65.8386C23.5931 65.8386 22.9889 65.5884 22.5341 65.1337ZM28.1347 70.7886C27.68 70.3345 27.4298 69.7302 27.4298 69.0875C27.4298 68.4448 27.68 67.8406 28.1347 67.3858L31.8432 63.6767C32.6031 62.9175 33.822 62.7539 34.7522 63.2953C35.6018 63.7897 36.0467 64.7601 35.9008 65.7269C35.8209 66.2585 35.5682 66.7584 35.188 67.1387L31.5381 70.7886C31.0833 71.2433 30.4791 71.4935 29.8364 71.4935C29.1937 71.4935 28.5894 71.2433 28.1347 70.7886ZM34.5141 75.7202C33.576 74.7821 33.576 73.2556 34.5141 72.3175L36.427 70.4047C36.485 70.3467 36.5454 70.2923 36.6076 70.2411C36.6095 70.2399 36.6107 70.2386 36.6119 70.2374C36.9232 69.9847 37.2888 69.8157 37.6788 69.7418C37.688 69.7406 37.6971 69.7394 37.7063 69.7381C37.7734 69.7259 37.8418 69.7162 37.9101 69.7101C37.9376 69.7076 37.9651 69.7076 37.9931 69.7058C38.0493 69.7027 38.1048 69.6991 38.1616 69.6997C38.8165 69.7089 39.4262 69.9762 39.8779 70.4535C39.9334 70.5121 39.9853 70.5731 40.0329 70.636C40.7544 71.579 40.6573 72.9797 39.7619 73.8757L37.9168 75.7208C36.9787 76.6589 35.4522 76.6583 34.5141 75.7202ZM63.7774 58.2135C62.8393 59.1522 61.3128 59.1516 60.3747 58.2135C60.3405 58.1793 60.3045 58.1476 60.2679 58.1177L50.1812 47.9248C49.5715 47.3089 48.5785 47.3041 47.9626 47.9138C47.3468 48.5229 47.3419 49.516 47.951 50.1318L58.1469 60.4339C58.1482 60.4352 58.1494 60.4364 58.1506 60.4376C59.0887 61.3757 59.0887 62.9028 58.1506 63.8409C57.6959 64.2956 57.0916 64.5459 56.4489 64.5459C55.8056 64.5459 55.2014 64.2956 54.7473 63.8409L47.9266 56.9494C47.3175 56.3336 46.3244 56.3287 45.7086 56.9379C45.0927 57.5476 45.0879 58.5406 45.697 59.1565L52.4133 65.9424C52.4475 65.9851 52.4841 66.026 52.5232 66.065C53.4613 67.0032 53.4613 68.5303 52.5232 69.4684C51.5844 70.4065 50.0573 70.4059 49.1192 69.4678L45.3967 65.7062C44.787 65.0903 43.7939 65.0848 43.1781 65.6946C42.5622 66.3037 42.5573 67.2967 43.1665 67.9126L46.7852 71.5686C46.8194 71.6113 46.856 71.6528 46.8957 71.6919C47.8338 72.63 47.8338 74.1571 46.8957 75.0952C45.9576 76.0339 44.4311 76.0333 43.493 75.0952C43.385 74.9872 43.258 74.9042 43.1372 74.8114C43.0346 74.7333 43.0078 74.6789 43.0591 74.5544C43.1109 74.4281 43.1884 74.314 43.2403 74.187C43.2977 74.0454 43.3441 73.8995 43.3893 73.753C43.6297 72.9779 43.7005 72.1442 43.5925 71.3397C43.385 69.7961 42.536 68.4033 41.2494 67.522C40.5542 67.0465 39.7497 66.7346 38.916 66.6174C39.32 64.8352 38.8348 62.9028 37.5726 61.5692C36.5338 60.4718 35.1306 59.8559 33.6212 59.8352C33.5662 59.8346 33.5113 59.8346 33.4558 59.8352C33.4893 58.3948 32.9657 56.9635 31.9726 55.9143C30.9332 54.8169 29.53 54.201 28.0212 54.1803C27.5726 54.1742 27.1197 54.2218 26.6827 54.3225C26.4959 53.0231 25.841 51.8207 24.8492 50.9607C23.8635 50.1074 22.6239 49.6338 21.3037 49.6155C19.9139 49.5953 18.5485 50.108 17.5164 51.04L11.4526 42.8692L25.9594 25.1959L30.5829 26.4605L24.5446 37.1155C23.8147 38.4039 23.6303 39.8993 24.0252 41.3263C24.4201 42.7539 25.3466 43.9416 26.6351 44.6716C26.7157 44.7174 26.7968 44.7607 26.8792 44.8022C26.8853 44.8053 26.8914 44.8083 26.8982 44.8114C27.1148 44.9194 27.3376 45.0122 27.5634 45.0903C28.6151 45.4547 29.7509 45.4944 30.8465 45.1916C32.2735 44.7967 33.4613 43.8696 34.1912 42.5818L38.1152 35.6573L45.1214 36.1542L63.778 54.8102C64.7155 55.7489 64.7156 57.2754 63.7774 58.2135ZM64.4275 51.0229L46.9256 33.5217C46.8927 33.4881 46.8579 33.4564 46.8219 33.4265C46.5698 33.2165 46.2573 33.0896 45.9277 33.0664L37.3492 32.4579C36.756 32.417 36.1664 32.7325 35.8734 33.2495L31.4618 41.0351C31.145 41.5942 30.6292 41.9964 30.0097 42.1679C29.3908 42.3395 28.7414 42.2589 28.1817 41.9421C27.6226 41.6253 27.2204 41.1096 27.0489 40.4901C26.8774 39.8706 26.9574 39.2212 27.2747 38.6621L33.164 28.2684L35.5505 27.5818C35.5664 27.5769 35.5816 27.5708 35.5975 27.5659L44.5044 24.9939H55.2661L68.7011 42.0727L64.4275 51.0229ZM70.7562 39.6106L58.3319 23.808L64.6728 19.7754L76.2823 34.8553L70.7562 39.6106Z" fill="#363981"/>
<path d="M48.4662 18.9111C48.8678 18.9111 49.2694 18.7579 49.5758 18.4515L60.2912 7.73621C60.9039 7.12341 60.9039 6.13037 60.2912 5.51758C59.6784 4.90479 58.6853 4.90479 58.0725 5.51758L47.3572 16.2329C46.7444 16.8457 46.7444 17.8387 47.3572 18.4515C47.6636 18.7579 48.0652 18.9111 48.4662 18.9111Z" fill="#363981"/>
<path d="M30.4242 18.4515C30.7306 18.7579 31.1322 18.9111 31.5338 18.9111C31.9348 18.9111 32.3364 18.7579 32.6428 18.4515C33.2556 17.8387 33.2556 16.8457 32.6428 16.2329L21.9275 5.51758C21.3147 4.90479 20.3217 4.90479 19.7089 5.51758C19.0961 6.13037 19.0961 7.12341 19.7089 7.73621L30.4242 18.4515Z" fill="#363981"/>
<path d="M40 18.9111C40.8661 18.9111 41.5686 18.2086 41.5686 17.3425V8.47473C41.5686 7.60864 40.8661 6.90613 40 6.90613C39.1339 6.90613 38.4314 7.60864 38.4314 8.47473V17.3425C38.4314 18.2086 39.1339 18.9111 40 18.9111Z" fill="#363981"/>
<path d="M38.5523 2.78929C38.8013 3.39293 39.422 3.78905 40.0769 3.75487C40.7239 3.7213 41.2921 3.28429 41.4923 2.66844C41.6931 2.04772 41.4746 1.34032 40.9546 0.944811C40.4242 0.540758 39.6845 0.518175 39.1296 0.884996C38.5107 1.29393 38.2709 2.10814 38.5523 2.78929Z" fill="#363981"/>
</g>
<defs>
<clipPath id="clip0">
<rect width="80" height="80" fill="white"/>
</clipPath>
</defs>
</svg>
