<svg width="80" height="80" viewBox="0 0 80 80" fill="none" xmlns="http://www.w3.org/2000/svg">
<g clip-path="url(#clip0)">
<path d="M39.8438 72.8905C42.6915 72.8905 45.0001 70.582 45.0001 67.7342C45.0001 64.8865 42.6915 62.578 39.8438 62.578C36.9961 62.578 34.6876 64.8865 34.6876 67.7342C34.6876 70.582 36.9961 72.8905 39.8438 72.8905Z" fill="#363981"/>
<path d="M79.1614 24.1975C68.8911 13.1783 54.9837 7.10953 39.9997 7.10938C25.0169 7.10953 11.1096 13.1783 0.839159 24.1975C-0.337401 25.46 -0.26787 27.4375 0.994627 28.6142C2.25728 29.7907 4.23462 29.7214 5.41134 28.4587C14.4863 18.7219 26.77 13.3595 40.0008 13.3594C53.2305 13.3595 65.5142 18.7219 74.5892 28.4587C75.2046 29.119 76.0392 29.4531 76.8759 29.4531C77.6389 29.4531 78.4037 29.1753 79.0059 28.6142C80.2684 27.4373 80.3381 25.46 79.1614 24.1975Z" fill="#363981"/>
<path d="M67.6864 37.1028C60.0947 29.4537 50.2621 25.2414 39.9996 25.2417C29.7348 25.2419 19.902 29.4543 12.3126 37.1031C11.097 38.3282 11.1047 40.3068 12.3298 41.5225C13.555 42.7381 15.5336 42.7304 16.7492 41.5053C23.1562 35.0481 31.4134 31.4918 39.9996 31.4917C48.5837 31.4914 56.8408 35.0478 63.2502 41.5056C63.8611 42.121 64.6646 42.4292 65.4683 42.4292C66.2639 42.4292 67.0602 42.127 67.6699 41.5221C68.8947 40.3064 68.9022 38.3278 67.6864 37.1028Z" fill="#363981"/>
<path d="M55.1798 50.0455C51.1141 46.0175 45.2865 43.5155 39.9706 43.5155C39.9699 43.5155 39.9688 43.5155 39.9682 43.5155H39.7431C39.7421 43.5155 39.7416 43.5155 39.7407 43.5155C34.4246 43.5155 28.5965 46.0177 24.531 50.0455C23.3051 51.2602 23.2959 53.2388 24.5106 54.4649C25.1217 55.0816 25.926 55.3905 26.7306 55.3905C27.5254 55.3905 28.3206 55.0891 28.9298 54.4855C31.824 51.618 36.0673 49.7655 39.741 49.7655C39.7415 49.7655 39.7421 49.7655 39.7426 49.7655H39.9687C39.9693 49.7655 39.9695 49.7655 39.9701 49.7655C43.6434 49.7655 47.8869 51.6181 50.7808 54.4855C52.0068 55.7 53.9857 55.6913 55.2002 54.4649C56.4151 53.2389 56.4058 51.2602 55.1798 50.0455Z" fill="#363981"/>
</g>
<defs>
<clipPath id="clip0">
<rect width="80" height="80" fill="white"/>
</clipPath>
</defs>
</svg>
