<svg width="20" height="24" viewBox="0 0 20 24" fill="none" xmlns="http://www.w3.org/2000/svg">
<path d="M17.5833 2.16667H13.055C12.6 0.91 11.4083 0 10 0C8.59167 0 7.4 0.91 6.945 2.16667H2.41667C1.225 2.16667 0.25 3.14167 0.25 4.33333V21.6667C0.25 22.8583 1.225 23.8333 2.41667 23.8333H17.5833C18.775 23.8333 19.75 22.8583 19.75 21.6667V4.33333C19.75 3.14167 18.775 2.16667 17.5833 2.16667ZM10 2.16667C10.5958 2.16667 11.0833 2.65417 11.0833 3.25C11.0833 3.84583 10.5958 4.33333 10 4.33333C9.40417 4.33333 8.91667 3.84583 8.91667 3.25C8.91667 2.65417 9.40417 2.16667 10 2.16667ZM17.5833 21.6667H2.41667V4.33333H4.58333V7.58333H15.4167V4.33333H17.5833V21.6667Z" fill="white"/>
</svg>
