<svg width="24" height="28" viewBox="0 0 24 28" fill="none" xmlns="http://www.w3.org/2000/svg">
<path d="M20.75 2.5H15.525C15 1.05 13.625 0 12 0C10.375 0 9 1.05 8.475 2.5H3.25C1.875 2.5 0.75 3.625 0.75 5V25C0.75 26.375 1.875 27.5 3.25 27.5H20.75C22.125 27.5 23.25 26.375 23.25 25V5C23.25 3.625 22.125 2.5 20.75 2.5ZM12 2.5C12.6875 2.5 13.25 3.0625 13.25 3.75C13.25 4.4375 12.6875 5 12 5C11.3125 5 10.75 4.4375 10.75 3.75C10.75 3.0625 11.3125 2.5 12 2.5ZM20.75 25H3.25V5H5.75V8.75H18.25V5H20.75V25Z" fill="black"/>
</svg>
