<svg width="80" height="80" viewBox="0 0 80 80" fill="none" xmlns="http://www.w3.org/2000/svg">
<g clip-path="url(#clip0)">
<path d="M54.3781 24.2419C53.5139 24.2419 52.8125 24.9402 52.8125 25.8038C52.8125 26.6669 53.5139 27.3663 54.3781 27.3663C55.244 27.3663 55.9436 26.6669 55.9436 25.8038C55.9436 24.9402 55.244 24.2419 54.3781 24.2419Z" fill="#363981"/>
<path d="M25.9326 52.6312C25.0666 52.6312 24.367 53.3313 24.367 54.1937C24.367 55.058 25.0666 55.7562 25.9326 55.7562C26.7967 55.7562 27.4982 55.058 27.4982 54.1937C27.4982 53.3313 26.7967 52.6312 25.9326 52.6312Z" fill="#363981"/>
<path d="M78.2871 9.6116C77.7587 9.48892 77.2034 9.64823 76.8218 10.0327L70.3315 16.5617H67.2199L63.7946 13.0198V9.87101L70.192 3.3909C70.5706 3.0076 70.7247 2.45645 70.5993 1.93216C70.4746 1.40847 70.0881 0.986111 69.5768 0.813992C67.9697 0.27322 66.2879 -0.000828325 64.5774 -0.000828325C59.4784 -0.000828325 54.8459 2.37222 51.8677 6.5098C49.0802 10.3831 48.221 15.1298 49.4521 19.6726L37.9201 31.1821L18.7078 11.9633V8.19132C18.7078 7.64261 18.4192 7.13358 17.9477 6.85159L6.87806 0.22195C6.26162 -0.147313 5.47334 -0.0502668 4.96575 0.456936L0.53816 4.87527C0.0305769 5.38248 -0.0666588 6.16922 0.302715 6.78445L6.94411 17.8324C7.22664 18.303 7.73606 18.5905 8.28584 18.5911L12.064 18.5923L31.2781 37.8111L19.7902 49.2765C15.2385 48.0485 10.4801 48.9073 6.59736 51.6911C2.45413 54.6617 0.0782776 59.2839 0.0782776 64.373C0.0782776 66.0795 0.352862 67.7586 0.894692 69.362C1.06776 69.8753 1.49523 70.2629 2.02361 70.385C2.55259 70.5076 3.10727 70.3483 3.48948 69.9638L9.97921 63.4355H13.1079L16.6726 66.9932V70.1158L10.1315 76.5928C9.74621 76.9743 9.5866 77.5279 9.70952 78.0559C9.83183 78.5832 10.2202 79.0098 10.7345 79.1826C12.341 79.7233 14.0234 79.9974 15.7332 79.9974C20.8323 79.9974 25.4629 77.6256 28.4399 73.4904C31.2292 69.6153 32.0897 64.8668 30.8592 60.3239L40.0856 51.1155L42.1991 53.4068L41.2292 54.3742C40.6177 54.9846 40.6177 55.9739 41.2292 56.5843C41.8408 57.194 42.8315 57.194 43.4436 56.5843L44.3218 55.7078L64.1518 77.2056C64.1665 77.2215 64.1818 77.2368 64.197 77.252C67.8663 80.9141 73.8112 80.9154 77.4823 77.2514C81.143 73.596 81.143 67.6481 77.4823 63.9927C77.4664 63.9769 77.4499 63.9616 77.4333 63.9464L55.8598 44.1929L56.7282 43.3262C57.3398 42.7165 57.3398 41.7271 56.7282 41.1168C56.1167 40.5064 55.126 40.5064 54.5138 41.1168L53.5506 42.0787L51.2506 39.9717L60.5217 30.7188C61.8395 31.0704 63.1996 31.2486 64.5774 31.2486C73.21 31.2486 80.2324 24.2393 80.2324 15.6242C80.2324 13.917 79.9578 12.2386 79.416 10.6346C79.2429 10.1212 78.8154 9.73368 78.2871 9.6116ZM13.8216 15.9263C13.528 15.6327 13.1299 15.4832 12.714 15.4832L9.17319 15.482L3.61668 6.22293L6.31544 3.52945L15.5767 9.07633V12.6103C15.5767 13.0241 15.7412 13.4208 16.0341 13.7138L35.7063 33.3921L33.4919 35.6016L13.8216 15.9263ZM53.6436 46.4048L75.2905 66.2248C77.7085 68.6638 77.7012 72.6127 75.2679 75.0426C72.829 77.4766 68.8809 77.484 66.4322 75.0639L46.5374 53.4959L53.6436 46.4048ZM51.3344 44.29L44.4148 51.1949L42.3013 48.9036L49.0344 42.183L51.3344 44.29ZM64.5774 28.1236C63.2082 28.1236 61.8615 27.9045 60.5761 27.4723C60.0128 27.2837 59.3903 27.429 58.9696 27.8483C51.121 35.6816 34.2093 52.5596 27.9819 58.7755C27.5612 59.1954 27.415 59.8167 27.6052 60.3795C28.9066 64.2363 28.284 68.35 25.8965 71.6673C23.5158 74.9748 19.811 76.8724 15.7332 76.8724C15.2752 76.8724 14.8196 76.8474 14.3683 76.7991L19.3408 71.8748C19.6367 71.5819 19.8037 71.1827 19.8037 70.7658V66.3456C19.8037 65.9312 19.6386 65.5339 19.345 65.2409L14.863 60.7676C14.5695 60.4747 14.1714 60.3099 13.7561 60.3099H9.3273C8.90961 60.3099 8.50966 60.4765 8.21551 60.7719L3.28217 65.7347C3.23324 65.2842 3.20878 64.8295 3.20878 64.3724C3.20878 60.3019 5.10947 56.605 8.42405 54.2289C11.7472 51.8461 15.8696 51.2242 19.7346 52.5236C20.2978 52.7134 20.9204 52.5676 21.3411 52.1476C21.4273 52.0622 52.3068 21.2425 52.3288 21.2205C52.7495 20.8006 52.8951 20.1798 52.7055 19.6171C51.4035 15.7603 52.0248 11.6477 54.4105 8.33292C56.7931 5.02237 60.4984 3.12417 64.5768 3.12417C65.0489 3.12417 65.518 3.15042 65.9828 3.20169L61.1136 8.13394C60.825 8.4263 60.6635 8.81998 60.6635 9.23013V13.6503C60.6635 14.0556 60.8207 14.4444 61.1026 14.7355L65.4281 19.2088C65.7229 19.514 66.1295 19.6861 66.5546 19.6861H70.9834C71.4004 19.6861 71.8004 19.5201 72.0946 19.224L77.0279 14.2619C77.0768 14.7123 77.1013 15.167 77.1013 15.6242C77.1013 22.5163 71.483 28.1236 64.5774 28.1236Z" fill="#363981"/>
<path d="M48.8436 29.118L29.2527 48.6707C28.6418 49.2804 28.6418 50.2698 29.2527 50.8801C29.8642 51.4905 30.8556 51.4905 31.4671 50.8801L51.058 31.3275C51.6695 30.7178 51.6695 29.7284 51.058 29.118C50.4464 28.5077 49.4551 28.5077 48.8436 29.118Z" fill="#363981"/>
<path d="M68.6271 70.625C69.2386 71.2335 70.23 71.2335 70.8415 70.6214C71.4518 70.0104 71.45 69.021 70.8378 68.4119L56.7264 54.3732C56.1143 53.7641 55.1223 53.7659 54.5126 54.3768C53.9017 54.9884 53.9035 55.9772 54.5157 56.5863L68.6271 70.625Z" fill="#363981"/>
</g>
<defs>
<clipPath id="clip0">
<rect width="80" height="80" fill="white"/>
</clipPath>
</defs>
</svg>
