<svg width="80" height="80" viewBox="0 0 80 80" fill="none" xmlns="http://www.w3.org/2000/svg">
<g clip-path="url(#clip0)">
<path d="M23.6958 34.7084L23.6929 34.7593C23.4958 38.2117 25.4296 41.4458 28.6209 42.9964L28.6536 43.0124C29.7787 43.5505 30.7009 44.4378 31.2827 45.5411L31.2958 45.5651C32.9038 48.6269 36.2296 50.4829 39.775 50.2967L39.8288 50.2938C41.1146 50.2218 42.391 50.5534 43.479 51.2429C46.4812 53.1207 50.292 53.1207 53.2942 51.2429C54.3822 50.5534 55.6585 50.2218 56.9444 50.2938L56.9982 50.2967C60.5378 50.4843 63.868 48.6269 65.4796 45.56L65.4876 45.5433C66.0716 44.4371 66.9959 43.5484 68.1247 43.0095L68.1508 42.9964C71.3421 41.4451 73.2766 38.2117 73.0788 34.7586L73.0759 34.7106C73.0104 33.4946 73.3479 32.291 74.0373 31.2866C76.0221 28.3921 76.0221 24.5754 74.0381 21.6801C73.3493 20.6765 73.0104 19.4736 73.0759 18.2576L73.0788 18.2067C73.2766 14.7536 71.3421 11.5202 68.1479 9.96821L68.1188 9.95367C66.9959 9.41694 66.0759 8.53404 65.4934 7.43368L65.4767 7.40096C63.868 4.33916 60.5378 2.4839 56.9982 2.66935L56.9436 2.67226C55.6585 2.74426 54.3822 2.41262 53.2949 1.72317H53.2935C50.2913 -0.154632 46.4804 -0.154632 43.4783 1.72317C42.3903 2.4119 41.1139 2.74353 39.8281 2.67153L39.7743 2.66862C36.2339 2.48099 32.9045 4.33843 31.2965 7.3995L31.2842 7.42205C30.7016 8.5275 29.7787 9.41549 28.6522 9.9544L28.6216 9.96894C25.4304 11.5195 23.4958 14.7536 23.6937 18.2067L23.6966 18.2547C23.762 19.4707 23.4246 20.6743 22.7351 21.678C20.7504 24.5732 20.7504 28.3906 22.7351 31.2852C23.4238 32.2888 23.762 33.4924 23.6958 34.7084ZM25.1867 23.3696C26.2507 21.8205 26.7722 19.9631 26.6704 18.0867L26.6675 18.0358C26.5627 15.7478 27.8471 13.6227 29.9205 12.6504L29.946 12.638C31.6471 11.8235 33.0398 10.4824 33.9183 8.81404L33.9329 8.7864C35.0012 6.75151 37.239 5.51806 39.6157 5.6446L39.6681 5.64679C41.5699 5.75369 43.4572 5.26352 45.0659 4.24389C47.0971 2.97335 49.6746 2.97335 51.7058 4.24389C53.3146 5.26206 55.2018 5.75297 57.1029 5.64751L57.1553 5.6446C59.5436 5.51951 61.7705 6.75151 62.836 8.78058L62.8556 8.81768C63.7341 10.4838 65.1254 11.8227 66.8243 12.6366L66.849 12.6489C68.9552 13.6729 70.2337 15.7871 70.105 18.0365L70.1021 18.0896C70.0003 19.966 70.5225 21.8227 71.5864 23.3718C72.8723 25.2474 72.8715 27.7201 71.585 29.595C70.5217 31.1448 70.0003 33.0023 70.1021 34.8786L70.105 34.9288C70.2337 37.1782 68.9552 39.2931 66.8483 40.3178L66.8265 40.328C65.1239 41.144 63.7298 42.4866 62.8505 44.1578L62.8396 44.1796C61.7705 46.2145 59.5363 47.4487 57.156 47.3214L57.1044 47.3185C55.2026 47.2123 53.3146 47.7033 51.7051 48.7222C49.6746 49.992 47.0971 49.992 45.0666 48.7222C43.6034 47.7949 41.9059 47.3033 40.1736 47.3047C40.0056 47.3047 39.8368 47.3091 39.6681 47.3185L39.6157 47.3207C37.2703 47.4698 35.0514 46.2422 33.9307 44.176L33.9154 44.1476C33.0383 42.4822 31.6478 41.144 29.9496 40.3302L29.922 40.3164C27.8151 39.2924 26.5365 37.1775 26.666 34.9288L26.6689 34.8757C26.77 32.9993 26.2478 31.1419 25.1846 29.5935C23.8995 27.7179 23.9002 25.2452 25.1867 23.371V23.3696Z" fill="#363981"/>
<path d="M38.7758 41.8807C39.4732 42.3163 40.3918 42.1032 40.8274 41.4058L58.4717 13.1398C58.7597 12.6881 58.7837 12.1165 58.5335 11.6431C58.2833 11.1689 57.7975 10.8663 57.2622 10.8496C56.7269 10.8329 56.2237 11.1049 55.9444 11.5623L38.3009 39.8283C37.8652 40.5265 38.0776 41.4451 38.7758 41.8807Z" fill="#363981"/>
<path d="M40.3568 26.5564C43.9837 26.5564 46.935 23.1913 46.935 19.0554C46.935 14.9194 43.9837 11.5551 40.3568 11.5551C36.7299 11.5551 33.7794 14.9194 33.7794 19.0554C33.7794 23.1913 36.7299 26.5564 40.3568 26.5564ZM40.3568 14.5339C42.3415 14.5339 43.9561 16.5623 43.9561 19.0554C43.9561 21.5484 42.3415 23.5775 40.3568 23.5775C38.3728 23.5775 36.7583 21.5477 36.7583 19.0554C36.7583 16.563 38.3728 14.5339 40.3568 14.5339Z" fill="#363981"/>
<path d="M49.8375 33.9121C49.8375 38.048 52.788 41.4124 56.4149 41.4124C60.0418 41.4124 62.9931 38.0473 62.9931 33.9121C62.9931 29.7775 60.0425 26.4117 56.4157 26.4117C52.788 26.4117 49.8375 29.7754 49.8375 33.9121ZM60.0142 33.9121C60.0142 36.4051 58.3996 38.4335 56.4149 38.4335C54.4309 38.4335 52.8164 36.4051 52.8164 33.9121C52.8164 31.419 54.4309 29.3906 56.4149 29.3906C58.3996 29.3906 60.0142 31.4175 60.0142 33.9121Z" fill="#363981"/>
<path d="M79.8075 58.6449C77.8351 55.1446 73.4613 53.8115 69.8723 55.6166L58.2047 61.1293C56.5938 58.1337 53.5037 56.2268 50.1029 56.1308L39.3321 55.8341C37.6267 55.7853 35.9532 55.3526 34.4369 54.5701L33.3409 54.0021C27.7293 51.077 21.0406 51.0843 15.4348 54.021L15.5032 51.5381C15.5257 50.7155 14.8777 50.0305 14.0552 50.0079L2.24432 49.6828C1.42178 49.6603 0.737421 50.3083 0.714876 51.1308L0.0014254 77.0499C-0.02112 77.8725 0.626876 78.5575 1.44942 78.5801L13.2603 78.9052H13.3017C14.1083 78.9045 14.7679 78.2623 14.7904 77.4565L14.8239 76.2165L17.8922 74.5736C19.0966 73.9256 20.5053 73.7714 21.8209 74.1438L40.143 79.2863C40.175 79.2957 40.207 79.303 40.2397 79.3103C41.5641 79.5874 42.9139 79.7263 44.2673 79.7255C47.1328 79.727 49.9648 79.1095 52.5691 77.9139C52.6331 77.8848 52.6949 77.8514 52.7538 77.8136L79.3195 60.6289C79.982 60.2013 80.1959 59.3308 79.8075 58.6449ZM3.02032 75.6427L3.65159 52.7024L12.485 52.9453L11.853 75.8863L3.02032 75.6427ZM51.2266 75.2521C47.991 76.7125 44.3772 77.1154 40.8994 76.4041L22.626 71.2761C20.57 70.6943 18.3679 70.9358 16.4864 71.9474L14.9184 72.7867L15.3388 57.5337C20.3068 54.229 26.6791 53.8893 31.9707 56.6464L33.0667 57.2144C34.9823 58.2035 37.0957 58.7497 39.2506 58.8115L50.0215 59.1082C53.0469 59.1948 55.6164 61.3489 56.2302 64.3133L40.1866 63.8718C39.3641 63.8493 38.6797 64.4973 38.6572 65.3198C38.6347 66.1424 39.2826 66.8274 40.1052 66.85L57.8105 67.3373H57.8527C58.6585 67.3365 59.3182 66.6943 59.3407 65.8885C59.3589 65.2413 59.3102 64.5933 59.1967 63.9562L71.1617 58.3017L71.1966 58.2849C72.8941 57.4253 74.9472 57.7126 76.3428 59.0049L51.2266 75.2521Z" fill="#363981"/>
</g>
<defs>
<clipPath id="clip0">
<rect width="80" height="80" fill="white"/>
</clipPath>
</defs>
</svg>
