<svg width="30" height="30" viewBox="0 0 30 30" fill="none" xmlns="http://www.w3.org/2000/svg">
<path d="M11.9327 14.134L22.107 8.25991L17.3218 5.49716L7.14746 11.3712L11.9327 14.134Z" fill="#161616"/>
<path d="M11.543 14.8444L1.34766 8.96981V20.7198L11.543 26.5944V14.8444Z" fill="#161616"/>
<path d="M21.6797 20.8594H20.5664V21.9727H21.6797V20.8594Z" fill="#161616"/>
<path d="M12.3633 14.8444V26.5944L17.9297 23.3755V14.8935C17.9274 14.4267 18.1107 13.9781 18.4391 13.6465C18.7676 13.3148 19.2143 13.1272 19.6811 13.125H21.1406C21.2238 12.824 21.4026 12.5583 21.6502 12.368C21.8977 12.1777 22.2005 12.0732 22.5127 12.0703H22.5V8.96981L12.3633 14.8444Z" fill="#161616"/>
<path d="M24.8929 12.8906H22.5094C22.1806 12.8906 21.9141 13.1572 21.9141 13.486V13.5257C21.9141 13.8545 22.1806 14.1211 22.5094 14.1211H24.8929C25.2217 14.1211 25.4883 13.8545 25.4883 13.5257V13.486C25.4883 13.1572 25.2217 12.8906 24.8929 12.8906Z" fill="#161616"/>
<path d="M16.5019 5.02356L11.9331 2.38578L1.75879 8.25992L6.32752 10.8977L16.5019 5.02356Z" fill="#161616"/>
<path d="M27.71 13.9453H26.2344C26.1465 14.2356 25.9668 14.4896 25.7223 14.6692C25.4778 14.8488 25.1817 14.9443 24.8784 14.9414H22.5128C22.2094 14.9443 21.9133 14.8488 21.6688 14.6692C21.4243 14.4896 21.2446 14.2356 21.1567 13.9453H19.6812C19.5577 13.9463 19.4357 13.9716 19.3221 14.0199C19.2085 14.0681 19.1055 14.1382 19.019 14.2263C18.9325 14.3144 18.8642 14.4186 18.8181 14.5331C18.7719 14.6476 18.7488 14.7701 18.75 14.8935V26.7353C18.7493 26.8573 18.773 26.9782 18.8197 27.0909C18.8663 27.2036 18.935 27.3059 19.0218 27.3917C19.1085 27.4775 19.2115 27.5451 19.3248 27.5905C19.438 27.636 19.5592 27.6583 19.6812 27.6563H27.71C27.8326 27.6585 27.9544 27.6364 28.0683 27.5912C28.1823 27.546 28.2861 27.4785 28.3738 27.3929C28.4615 27.3072 28.5313 27.2049 28.5791 27.092C28.6269 26.9791 28.6518 26.8579 28.6524 26.7353V14.8935C28.6524 14.643 28.5532 14.4028 28.3767 14.2251C28.2001 14.0475 27.9604 13.9469 27.71 13.9453ZM19.7461 16.7012C19.7458 16.6473 19.756 16.594 19.7763 16.5442C19.7966 16.4943 19.8265 16.449 19.8643 16.4107C19.9021 16.3724 19.9471 16.342 19.9967 16.3211C20.0463 16.3002 20.0995 16.2893 20.1533 16.2891H22.0854C22.1949 16.2893 22.2998 16.3327 22.3774 16.4099C22.4551 16.487 22.4991 16.5917 22.5001 16.7012V16.9771C22.4995 17.086 22.4558 17.1903 22.3785 17.267C22.3012 17.3437 22.1966 17.3866 22.0877 17.3863C22.0013 17.3892 21.9164 17.3636 21.846 17.3136C21.7756 17.2636 21.7235 17.1918 21.6977 17.1094H20.5665V18.2227H20.5826C20.6914 18.2227 20.7957 18.2659 20.8727 18.3428C20.9496 18.4197 20.9928 18.524 20.9928 18.6328C20.9928 18.7416 20.9496 18.8459 20.8727 18.9228C20.7957 18.9998 20.6914 19.043 20.5826 19.043H20.1533C20.0996 19.043 20.0465 19.0323 19.9969 19.0117C19.9474 18.9911 19.9024 18.9609 19.8645 18.9228C19.8267 18.8847 19.7967 18.8396 19.7764 18.7899C19.7561 18.7402 19.7458 18.687 19.7461 18.6333V16.7012ZM19.7461 20.4492C19.7461 20.3404 19.7894 20.2361 19.8663 20.1592C19.9432 20.0823 20.0475 20.0391 20.1563 20.0391H22.0899C22.1987 20.0391 22.303 20.0823 22.3799 20.1592C22.4568 20.2361 22.5001 20.3404 22.5001 20.4492V22.3828C22.5001 22.4916 22.4568 22.5959 22.3799 22.6728C22.303 22.7498 22.1987 22.793 22.0899 22.793H20.1563C20.0475 22.793 19.9432 22.7498 19.8663 22.6728C19.7894 22.5959 19.7461 22.4916 19.7461 22.3828V20.4492ZM20.5827 26.543H20.1533C20.1004 26.5445 20.0477 26.5354 19.9983 26.5162C19.949 26.497 19.904 26.4681 19.866 26.4312C19.828 26.3943 19.7978 26.3501 19.7773 26.3013C19.7567 26.2525 19.7461 26.2001 19.7461 26.1471V24.215C19.7449 24.1049 19.7868 23.9986 19.8629 23.919C19.939 23.8394 20.0432 23.7928 20.1533 23.7891H22.0854C22.1963 23.7925 22.3015 23.8388 22.3788 23.9182C22.4562 23.9977 22.4996 24.1041 22.5001 24.215V24.6102C22.4977 24.7181 22.4532 24.8207 22.3761 24.8961C22.2989 24.9715 22.1953 25.0137 22.0874 25.0136C21.9795 25.0135 21.876 24.9711 21.799 24.8955C21.722 24.82 21.6777 24.7172 21.6756 24.6094H20.5665V25.7227H20.5827C20.6915 25.7227 20.7958 25.7659 20.8727 25.8428C20.9496 25.9197 20.9928 26.024 20.9928 26.1328C20.9928 26.2416 20.9496 26.3459 20.8727 26.4228C20.7958 26.4998 20.6915 26.543 20.5827 26.543ZM23.6099 24.9458L22.1186 26.4371C22.0805 26.4752 22.0352 26.5054 21.9855 26.526C21.9357 26.5466 21.8824 26.5572 21.8285 26.5572C21.7746 26.5572 21.7213 26.5466 21.6715 26.526C21.6218 26.5054 21.5766 26.4752 21.5385 26.4371L20.8829 25.7817C20.8448 25.7436 20.8146 25.6984 20.7939 25.6486C20.7733 25.5988 20.7627 25.5455 20.7627 25.4916C20.7627 25.4378 20.7733 25.3844 20.7939 25.3347C20.8146 25.2849 20.8448 25.2397 20.8829 25.2016C20.921 25.1635 20.9662 25.1333 21.0159 25.1127C21.0657 25.0921 21.119 25.0814 21.1729 25.0814C21.2268 25.0814 21.2801 25.0921 21.3299 25.1127C21.3796 25.1333 21.4249 25.1635 21.4629 25.2016L21.8283 25.567L23.0295 24.3659C23.1064 24.2889 23.2108 24.2457 23.3195 24.2457C23.4283 24.2457 23.5327 24.2889 23.6096 24.3659C23.6865 24.4428 23.7297 24.5471 23.7297 24.6559C23.7297 24.7647 23.6865 24.869 23.6096 24.9459L23.6099 24.9458ZM23.6099 17.3726L22.1186 18.8639C22.0805 18.902 22.0352 18.9322 21.9855 18.9528C21.9357 18.9734 21.8824 18.9841 21.8285 18.9841C21.7746 18.9841 21.7213 18.9734 21.6715 18.9528C21.6218 18.9322 21.5766 18.902 21.5385 18.8639L20.8829 18.2085C20.8448 18.1704 20.8146 18.1252 20.7939 18.0754C20.7733 18.0256 20.7627 17.9723 20.7627 17.9184C20.7627 17.8646 20.7733 17.8112 20.7939 17.7615C20.8146 17.7117 20.8448 17.6665 20.8829 17.6284C20.921 17.5903 20.9662 17.5601 21.0159 17.5395C21.0657 17.5189 21.119 17.5083 21.1729 17.5083C21.2268 17.5083 21.2801 17.5189 21.3299 17.5395C21.3796 17.5601 21.4249 17.5903 21.4629 17.6284L21.8283 17.9938L23.0295 16.7927C23.1064 16.7158 23.2108 16.6725 23.3195 16.6725C23.4283 16.6725 23.5327 16.7158 23.6096 16.7927C23.6865 16.8696 23.7297 16.9739 23.7297 17.0827C23.7297 17.1915 23.6865 17.2958 23.6096 17.3728L23.6099 17.3726ZM27.2378 25.6055H24.6616C24.5529 25.6055 24.4485 25.5623 24.3716 25.4853C24.2947 25.4084 24.2515 25.3041 24.2515 25.1953C24.2515 25.0865 24.2947 24.9822 24.3716 24.9053C24.4485 24.8284 24.5529 24.7852 24.6616 24.7852H27.2378C27.3466 24.7852 27.4509 24.8284 27.5278 24.9053C27.6047 24.9822 27.6479 25.0865 27.6479 25.1953C27.6479 25.3041 27.6047 25.4084 27.5278 25.4853C27.4509 25.5623 27.3466 25.6055 27.2378 25.6055ZM27.2378 21.8555H24.6616C24.5529 21.8555 24.4485 21.8123 24.3716 21.7353C24.2947 21.6584 24.2515 21.5541 24.2515 21.4453C24.2515 21.3365 24.2947 21.2322 24.3716 21.1553C24.4485 21.0784 24.5529 21.0352 24.6616 21.0352H27.2378C27.3466 21.0352 27.4509 21.0784 27.5278 21.1553C27.6047 21.2322 27.6479 21.3365 27.6479 21.4453C27.6479 21.5541 27.6047 21.6584 27.5278 21.7353C27.4509 21.8123 27.3466 21.8555 27.2378 21.8555ZM27.2378 18.1055H24.6616C24.5529 18.1055 24.4485 18.0623 24.3716 17.9853C24.2947 17.9084 24.2515 17.8041 24.2515 17.6953C24.2515 17.5865 24.2947 17.4822 24.3716 17.4053C24.4485 17.3284 24.5529 17.2852 24.6616 17.2852H27.2378C27.3466 17.2852 27.4509 17.3284 27.5278 17.4053C27.6047 17.4822 27.6479 17.5865 27.6479 17.6953C27.6479 17.8041 27.6047 17.9084 27.5278 17.9853C27.4509 18.0623 27.3466 18.1055 27.2378 18.1055Z" fill="#161616"/>
</svg>
