<svg width="26" height="26" viewBox="0 0 26 26" fill="none" xmlns="http://www.w3.org/2000/svg">
<path d="M10.3418 12.2495L19.1595 7.15861L15.0123 4.76422L6.19458 9.85509L10.3418 12.2495Z" fill="white"/>
<path d="M10.0039 12.8651L1.16797 7.7738V17.9572L10.0039 23.0484V12.8651Z" fill="white"/>
<path d="M18.7891 18.0781H17.8242V19.043H18.7891V18.0781Z" fill="white"/>
<path d="M10.7148 12.8651V23.0484L15.5391 20.2588V12.9076C15.5371 12.5031 15.6959 12.1144 15.9806 11.8269C16.2652 11.5395 16.6524 11.3769 17.057 11.375H18.3219C18.3939 11.1141 18.5489 10.8838 18.7635 10.7189C18.978 10.554 19.2404 10.4634 19.511 10.4609H19.5V7.7738L10.7148 12.8651Z" fill="white"/>
<path d="M21.5739 11.1719H19.5082C19.2232 11.1719 18.9922 11.4029 18.9922 11.6879V11.7223C18.9922 12.0073 19.2232 12.2383 19.5082 12.2383H21.5739C21.8588 12.2383 22.0898 12.0073 22.0898 11.7223V11.6879C22.0898 11.4029 21.8588 11.1719 21.5739 11.1719Z" fill="white"/>
<path d="M14.3015 4.35376L10.3419 2.06769L1.52417 7.15861L5.48374 9.44468L14.3015 4.35376Z" fill="white"/>
<path d="M24.0153 12.0859H22.7365C22.6603 12.3376 22.5046 12.5577 22.2927 12.7133C22.0808 12.869 21.8242 12.9517 21.5613 12.9492H19.5111C19.2482 12.9517 18.9915 12.869 18.7796 12.7133C18.5678 12.5577 18.412 12.3376 18.3358 12.0859H17.057C16.95 12.0868 16.8443 12.1088 16.7458 12.1505C16.6473 12.1923 16.5581 12.2531 16.4831 12.3295C16.4082 12.4058 16.349 12.4961 16.309 12.5954C16.269 12.6946 16.249 12.8007 16.25 12.9077V23.1706C16.2494 23.2763 16.2699 23.3811 16.3104 23.4788C16.3508 23.5765 16.4104 23.6651 16.4855 23.7395C16.5607 23.8138 16.65 23.8724 16.7481 23.9118C16.8463 23.9512 16.9513 23.9705 17.057 23.9688H24.0153C24.1216 23.9707 24.2271 23.9515 24.3259 23.9124C24.4247 23.8732 24.5146 23.8147 24.5906 23.7405C24.6666 23.6662 24.7271 23.5776 24.7686 23.4798C24.81 23.3819 24.8316 23.2768 24.8321 23.1706V12.9077C24.832 12.6906 24.7461 12.4824 24.5931 12.3284C24.4401 12.1745 24.2324 12.0873 24.0153 12.0859ZM17.1133 14.4743C17.113 14.4277 17.1219 14.3815 17.1394 14.3383C17.157 14.2951 17.1829 14.2558 17.2157 14.2226C17.2485 14.1894 17.2875 14.163 17.3305 14.1449C17.3734 14.1269 17.4196 14.1174 17.4662 14.1172H19.1407C19.2356 14.1174 19.3265 14.155 19.3938 14.2219C19.4611 14.2888 19.4992 14.3795 19.5 14.4743V14.7135C19.4996 14.8079 19.4617 14.8983 19.3947 14.9647C19.3277 15.0312 19.237 15.0684 19.1426 15.0682C19.0678 15.0706 18.9942 15.0485 18.9332 15.0051C18.8722 14.9618 18.827 14.8996 18.8047 14.8281H17.8243V15.793H17.8383C17.9326 15.793 18.023 15.8304 18.0896 15.8971C18.1563 15.9637 18.1937 16.0542 18.1937 16.1484C18.1937 16.2427 18.1563 16.3331 18.0896 16.3998C18.023 16.4665 17.9326 16.5039 17.8383 16.5039H17.4662C17.4197 16.5039 17.3736 16.4947 17.3307 16.4768C17.2877 16.459 17.2487 16.4328 17.2159 16.3998C17.1831 16.3668 17.1572 16.3276 17.1396 16.2845C17.122 16.2415 17.113 16.1954 17.1133 16.1488V14.4743ZM17.1133 17.7227C17.1133 17.6284 17.1508 17.538 17.2174 17.4713C17.2841 17.4046 17.3745 17.3672 17.4688 17.3672H19.1446C19.2389 17.3672 19.3293 17.4046 19.3959 17.4713C19.4626 17.538 19.5 17.6284 19.5 17.7227V19.3984C19.5 19.4927 19.4626 19.5831 19.3959 19.6498C19.3293 19.7165 19.2389 19.7539 19.1446 19.7539H17.4688C17.3745 19.7539 17.2841 19.7165 17.2174 19.6498C17.1508 19.5831 17.1133 19.4927 17.1133 19.3984V17.7227ZM17.8383 23.0039H17.4662C17.4203 23.0052 17.3746 22.9974 17.3319 22.9807C17.2891 22.9641 17.2501 22.939 17.2172 22.907C17.1843 22.875 17.1581 22.8367 17.1403 22.7945C17.1224 22.7522 17.1133 22.7067 17.1133 22.6608V20.9863C17.1122 20.8909 17.1486 20.7988 17.2145 20.7298C17.2805 20.6608 17.3708 20.6204 17.4662 20.6172H19.1407C19.2368 20.6201 19.3279 20.6603 19.395 20.7291C19.462 20.798 19.4997 20.8902 19.5 20.9863V21.3288C19.498 21.4223 19.4594 21.5113 19.3926 21.5766C19.3257 21.642 19.2359 21.6786 19.1424 21.6785C19.0489 21.6784 18.9592 21.6416 18.8925 21.5761C18.8257 21.5106 18.7873 21.4216 18.7855 21.3281H17.8243V22.293H17.8383C17.9326 22.293 18.023 22.3304 18.0897 22.3971C18.1563 22.4637 18.1938 22.5542 18.1938 22.6484C18.1938 22.7427 18.1563 22.8331 18.0897 22.8998C18.023 22.9665 17.9326 23.0039 17.8383 23.0039ZM20.4619 21.6197L19.1694 22.9121C19.1364 22.9452 19.0972 22.9713 19.0541 22.9892C19.011 23.0071 18.9647 23.0163 18.918 23.0163C18.8714 23.0163 18.8251 23.0071 18.782 22.9892C18.7389 22.9713 18.6997 22.9452 18.6667 22.9121L18.0985 22.3441C18.0655 22.3111 18.0393 22.2719 18.0214 22.2288C18.0036 22.1856 17.9944 22.1394 17.9944 22.0927C17.9944 22.0461 18.0036 21.9998 18.0214 21.9567C18.0393 21.9136 18.0655 21.8744 18.0985 21.8414C18.1315 21.8084 18.1707 21.7822 18.2138 21.7643C18.2569 21.7464 18.3032 21.7373 18.3498 21.7373C18.3965 21.7373 18.4428 21.7464 18.4859 21.7643C18.529 21.7822 18.5682 21.8084 18.6012 21.8414L18.9179 22.1581L19.9589 21.1171C20.0256 21.0504 20.116 21.013 20.2103 21.013C20.3046 21.013 20.395 21.0504 20.4616 21.1171C20.5283 21.1837 20.5658 21.2742 20.5658 21.3684C20.5658 21.4627 20.5283 21.5531 20.4616 21.6198L20.4619 21.6197ZM20.4619 15.0562L19.1694 16.3487C19.1364 16.3817 19.0972 16.4079 19.0541 16.4258C19.011 16.4436 18.9647 16.4528 18.918 16.4528C18.8714 16.4528 18.8251 16.4436 18.782 16.4258C18.7389 16.4079 18.6997 16.3817 18.6667 16.3487L18.0985 15.7807C18.0655 15.7477 18.0393 15.7085 18.0214 15.6654C18.0036 15.6222 17.9944 15.576 17.9944 15.5293C17.9944 15.4826 18.0036 15.4364 18.0214 15.3933C18.0393 15.3501 18.0655 15.311 18.0985 15.2779C18.1315 15.2449 18.1707 15.2188 18.2138 15.2009C18.2569 15.183 18.3032 15.1738 18.3498 15.1738C18.3965 15.1738 18.4428 15.183 18.4859 15.2009C18.529 15.2188 18.5682 15.2449 18.6012 15.2779L18.9179 15.5947L19.9589 14.5537C20.0256 14.487 20.116 14.4495 20.2103 14.4495C20.3046 14.4495 20.395 14.487 20.4616 14.5537C20.5283 14.6203 20.5658 14.7107 20.5658 14.805C20.5658 14.8993 20.5283 14.9897 20.4616 15.0564L20.4619 15.0562ZM23.6061 22.1914H21.3734C21.2791 22.1914 21.1887 22.154 21.1221 22.0873C21.0554 22.0206 21.018 21.9302 21.018 21.8359C21.018 21.7417 21.0554 21.6512 21.1221 21.5846C21.1887 21.5179 21.2791 21.4805 21.3734 21.4805H23.6061C23.7004 21.4805 23.7908 21.5179 23.8574 21.5846C23.9241 21.6512 23.9615 21.7417 23.9615 21.8359C23.9615 21.9302 23.9241 22.0206 23.8574 22.0873C23.7908 22.154 23.7004 22.1914 23.6061 22.1914ZM23.6061 18.9414H21.3734C21.2791 18.9414 21.1887 18.904 21.1221 18.8373C21.0554 18.7706 21.018 18.6802 21.018 18.5859C21.018 18.4917 21.0554 18.4012 21.1221 18.3346C21.1887 18.2679 21.2791 18.2305 21.3734 18.2305H23.6061C23.7004 18.2305 23.7908 18.2679 23.8574 18.3346C23.9241 18.4012 23.9615 18.4917 23.9615 18.5859C23.9615 18.6802 23.9241 18.7706 23.8574 18.8373C23.7908 18.904 23.7004 18.9414 23.6061 18.9414ZM23.6061 15.6914H21.3734C21.2791 15.6914 21.1887 15.654 21.1221 15.5873C21.0554 15.5206 21.018 15.4302 21.018 15.3359C21.018 15.2417 21.0554 15.1512 21.1221 15.0846C21.1887 15.0179 21.2791 14.9805 21.3734 14.9805H23.6061C23.7004 14.9805 23.7908 15.0179 23.8574 15.0846C23.9241 15.1512 23.9615 15.2417 23.9615 15.3359C23.9615 15.4302 23.9241 15.5206 23.8574 15.5873C23.7908 15.654 23.7004 15.6914 23.6061 15.6914Z" fill="white"/>
</svg>
