<svg width="80" height="80" viewBox="0 0 80 80" fill="none" xmlns="http://www.w3.org/2000/svg">
<g clip-path="url(#clip0)">
<path d="M78.8258 77.6517H71.2328V31.2329C71.2328 30.5845 70.7072 30.0587 70.0586 30.0587H57.5342C56.8856 30.0587 56.36 30.5845 56.36 31.2329V77.6517H47.4364V45.0098C47.4364 44.3614 46.9108 43.8356 46.2622 43.8356H33.7378C33.0892 43.8356 32.5636 44.3614 32.5636 45.0098V77.6517H23.64V51.272C23.64 50.6236 23.1144 50.0978 22.4658 50.0978H9.94141C9.29281 50.0978 8.76719 50.6236 8.76719 51.272V77.6515H1.17422C0.525625 77.6515 0 78.1773 0 78.8257C0 79.4742 0.525625 80 1.17422 80H78.8258C79.4744 80 80 79.4742 80 78.8257C79.9998 78.1773 79.4744 77.6517 78.8258 77.6517ZM21.2916 77.6517H11.1155V52.4462H21.2916V77.6517ZM45.0881 77.6517H34.912V46.184H45.0881V77.6517ZM68.8845 77.6517H58.7084V32.4072H68.8845V77.6517Z" fill="#363981"/>
<path d="M76.2513 0.920793C75.4599 0.222199 74.4066 -0.103269 73.3597 0.0282931L63.3402 1.28079C61.3511 1.52939 59.897 3.39642 60.1459 5.38751C60.3974 7.39954 62.2381 8.83345 64.2528 8.58189L65.0703 8.47986C52.7727 22.7386 38.1528 30.1077 27.8219 33.8111C14.9405 38.4291 4.91439 38.8241 4.81673 38.8274C2.79126 38.8906 1.19314 40.5902 1.25439 42.6159C1.31501 44.6166 2.92955 46.1836 4.93033 46.1836C4.96751 46.1836 5.00486 46.1831 5.04314 46.1819C5.48892 46.1685 16.1172 45.7931 30.1195 40.8038C37.9911 37.9988 45.398 34.2752 52.1341 29.7366C52.6719 29.3744 52.8141 28.6444 52.4516 28.1067C52.0894 27.5688 51.3597 27.4267 50.8217 27.7891C44.2486 32.2181 37.0181 35.8527 29.3313 38.5917C15.673 43.4584 5.40236 43.8216 4.97283 43.8345L4.93033 43.8352C4.2072 43.8352 3.62345 43.2685 3.60158 42.5449C3.57939 41.812 4.15751 41.1974 4.89064 41.1744C4.99314 41.1711 15.3053 40.7927 28.6144 36.0216C39.7642 32.0245 55.7852 23.8631 68.7903 7.68126C69.4378 6.87564 68.7533 5.65236 67.7297 5.78064L63.9622 6.25157C63.3091 6.33236 62.6747 5.90439 62.5089 5.26657C62.3095 4.49907 62.8458 3.70907 63.6317 3.61064L73.6516 2.35814C74.4339 2.25923 75.147 2.89157 75.147 3.67861V13.6981C75.147 14.4319 74.5502 15.0289 73.8163 15.0289C73.0824 15.0289 72.4855 14.432 72.4855 13.6981V10.6606C72.4855 10.1808 72.1752 9.73204 71.7264 9.56251C71.2628 9.38736 70.715 9.53439 70.4016 9.91814C66.0161 15.2917 61.0227 20.1542 55.5597 24.3705C55.0464 24.7667 54.9513 25.5041 55.3475 26.0175C55.7438 26.5309 56.4814 26.6258 56.9945 26.2297C61.7531 22.557 66.1641 18.4069 70.1409 13.8639C70.2278 15.8159 71.8431 17.3775 73.8164 17.3775C75.845 17.3775 77.4955 15.727 77.4955 13.6984V3.67892C77.4953 2.62423 77.0419 1.61876 76.2513 0.920793Z" fill="#363981"/>
</g>
<defs>
<clipPath id="clip0">
<rect width="80" height="80" fill="white"/>
</clipPath>
</defs>
</svg>
